<svg xmlns="http://www.w3.org/2000/svg" version="1.1" xmlns:xlink="http://www.w3.org/1999/xlink" xmlns:svgjs="http://svgjs.com/svgjs" width="512" height="512" x="0" y="0" viewBox="0 0 100 100" style="enable-background:new 0 0 512 512" xml:space="preserve" class=""><g><g id="Layer_35"><g><g><path d="m62.9 49.1c-4.6 0-8.8 1.4-12.4 3.7-1.5-2.1-3.1-4-4.8-5.8 9.4-9.4 15.2-24.4 13.7-37.1-.4-3-3.2-5.2-6.3-4.9-2.5.3-4.4 2.2-4.8 4.5h-22.9c-.4-2.3-2.3-4.2-4.8-4.5-3-.4-5.8 1.8-6.2 4.9-1.5 12.5 4.1 27.5 13.7 37.1-9.4 9.4-15.2 24.4-13.7 37.1.3 2.8 2.8 4.9 5.5 4.9h.7c2.5-.3 4.4-2.2 4.8-4.5h18.2c4.1 6.3 11.2 10.5 19.3 10.5 12.6 0 22.9-10.3 22.9-22.9 0-12.7-10.3-23-22.9-23zm-14.9 5.5c-1.3 1.1-2.6 2.4-3.6 3.9-1.6-2.3-3.3-4.5-5.2-6.2.2-.2.5-.4.7-.5 1.2-.8 2.3-1.7 3.5-2.6 1.7 1.5 3.2 3.4 4.6 5.4zm-8.1 17.1h-13.4c.6-2.3 1.5-4.6 2.6-6.8h12c-.7 2.1-1.1 4.4-1.2 6.8zm-3-17.6c2.1 1.9 4.1 4.4 5.8 7.1-.1.2-.2.5-.4.7h-11.6c1.7-3 3.8-5.6 6.2-7.8zm0-14.2c-2.4-2.2-4.4-4.8-6.2-7.8h12.4c-1.8 3-3.9 5.7-6.2 7.8zm7.8-10.7h-15.6c-1.1-2.2-1.9-4.5-2.5-6.8h20.7c-.7 2.3-1.6 4.6-2.6 6.8zm3.2-9.8h-22c-.4-2.3-.6-4.6-.5-6.8h23c.1 2.1-.1 4.4-.5 6.8zm-30.5-9.1c.2-1.4 1.5-2.4 2.9-2.3 1.4.2 2.4 1.5 2.3 2.9-1.2 10.3 3.9 23.3 12 31-.2.2-.5.4-.7.5-1.2.8-2.3 1.7-3.5 2.6-9-8.9-14.4-23.2-13-34.7zm2.9 75.7c-1.4.2-2.7-.8-2.9-2.3-1.7-14 6.3-31.1 18.1-38.9 10.1-6.7 17.2-21.9 15.8-34-.2-1.4.8-2.7 2.3-2.9h.3c1.3 0 2.4 1 2.6 2.3 1.7 14-6.3 31.1-18.1 38.9-10.1 6.7-17.2 21.9-15.8 34 .1 1.5-.9 2.8-2.3 2.9zm5.1-4.5c-.1-2.2 0-4.5.4-6.8h14.2c.3 2.4.9 4.7 1.9 6.8zm37.5 10.5c-11 0-19.9-8.9-19.9-19.9s8.9-19.9 19.9-19.9 19.9 8.9 19.9 19.9-8.9 19.9-19.9 19.9z" fill="#47af6c" data-original="#000000" class=""></path><path d="m61.8 72c-.8 0-1.5.7-1.5 1.5s.7 1.5 1.5 1.5 1.5-.7 1.5-1.5-.6-1.5-1.5-1.5z" fill="#47af6c" data-original="#000000" class=""></path><path d="m74.5 70.6h-2.1c-.2-1.5-.8-2.9-1.7-4.1l1.7-1.7c.6.6 1.5.6 2.1 0s.6-1.5 0-2.1l-1.1-1.1s0 0-.1-.1l-1.1-1.1c-.6-.6-1.5-.6-2.1 0s-.6 1.5 0 2.1l.1.1-1.7 1.7c-1.2-.9-2.6-1.5-4.1-1.7v-2.1c0-.8-.7-1.5-1.5-1.5s-1.5.7-1.5 1.5v2.1c-1.5.2-2.9.8-4.1 1.7l-1.7-1.7.1-.1c.6-.6.6-1.5 0-2.1s-1.5-.6-2.1 0l-1.1 1.1s0 0-.1.1l-1.1 1.1c-.6.6-.6 1.5 0 2.1s1.5.6 2.1 0l1.7 1.7c-.9 1.2-1.5 2.6-1.7 4.1h-2.1c-.8 0-1.5.7-1.5 1.5s.7 1.5 1.5 1.5h2.1c.2 1.5.8 2.9 1.7 4.1l-1.7 1.7c-.6-.6-1.5-.6-2.1 0s-.6 1.5 0 2.1l2.2 2.2c.3.3.7.4 1.1.4s.8-.1 1.1-.4c.6-.6.6-1.5 0-2.1l-.1-.1 1.7-1.7c1.2.9 2.6 1.5 4.1 1.7v2.1c0 .8.7 1.5 1.5 1.5s1.5-.7 1.5-1.5v-2.1c1.5-.2 2.9-.8 4.1-1.7l1.7 1.7-.1.1c-.6.6-.6 1.5 0 2.1.3.3.7.4 1.1.4s.8-.1 1.1-.4l2.2-2.2c.6-.6.6-1.5 0-2.1s-1.5-.6-2.1 0l-1.7-1.7c.9-1.2 1.5-2.6 1.7-4.1h2.1c.8 0 1.5-.7 1.5-1.5s-.7-1.5-1.5-1.5zm-11.6 8.1c-3.6 0-6.6-3-6.6-6.6s3-6.6 6.6-6.6 6.6 3 6.6 6.6-3 6.6-6.6 6.6z" fill="#47af6c" data-original="#000000" class=""></path></g></g></g></g></svg>