<svg xmlns="http://www.w3.org/2000/svg" version="1.1" xmlns:xlink="http://www.w3.org/1999/xlink" xmlns:svgjs="http://svgjs.com/svgjs" width="512" height="512" x="0" y="0" viewBox="0 0 64 64" style="enable-background:new 0 0 512 512" xml:space="preserve" class=""><g><g><path d="m55 38c0-1.654-1.346-3-3-3v-7c0-7.168-5.832-13-13-13h-2v-3c0-.552-.447-1-1-1h-1v-3h4c1.654 0 3-1.346 3-3s-1.346-3-3-3h-3c-.553 0-1 .448-1 1s.447 1 1 1h3c.552 0 1 .449 1 1s-.448 1-1 1h-16c-.551 0-1-.449-1-1s.449-1 1-1h9c.552 0 1-.448 1-1s-.448-1-1-1h-9c-1.654 0-3 1.346-3 3s1.346 3 3 3h4v3h-1c-.552 0-1 .448-1 1v3h-11v-3c0-.552-.448-1-1-1h-3v-3c0-.552-.448-1-1-1h-6c-.552 0-1 .448-1 1s.448 1 1 1h5v6c0 .552.448 1 1 1s1-.448 1-1v-2h2v18h-2v-12c0-.552-.448-1-1-1s-1 .448-1 1v16h-5c-.552 0-1 .448-1 1s.448 1 1 1h6c.552 0 1-.448 1-1v-3h3c.552 0 1-.448 1-1v-15h25c6.065 0 11 4.935 11 11v7h-2c-.553 0-1 .448-1 1s.447 1 1 1h4c.552 0 1 .449 1 1s-.448 1-1 1h-14c-.552 0-1-.449-1-1s.448-1 1-1h6c.553 0 1-.448 1-1s-.447-1-1-1h-4v-7c0-.552-.447-1-1-1h-22c-.552 0-1 .448-1 1s.448 1 1 1h21v6c-1.654 0-3 1.346-3 3 0 1.621 1.294 2.937 2.901 2.99l-1.896 19.915c-.053.55.351 1.038.9 1.09.032.004.065.005.096.005.51 0 .945-.388.994-.905l1.914-20.095h2.091v3c0 .552.447 1 1 1s1-.448 1-1v-3h2v4c0 .552.447 1 1 1s1-.448 1-1v-4h2.091l1.914 20.095c.049.517.484.905.994.905.031 0 .063-.001.096-.004.55-.052.953-.541.9-1.09l-1.896-19.916c1.607-.053 2.901-1.369 2.901-2.99zm-26-30h4v3h-4zm-2 7v-2h8v2z" fill="#47af6c" data-original="#000000" class=""></path><path d="m42.184 51.137c-.552-.065-1.046.326-1.112.874l-1.064 8.871c-.065.548.325 1.046.874 1.112.04.005.081.007.12.007.499 0 .931-.373.992-.881l1.064-8.871c.065-.549-.326-1.047-.874-1.112z" fill="#47af6c" data-original="#000000" class=""></path><path d="m45 57c-.553 0-1 .448-1 1v3c0 .552.447 1 1 1s1-.448 1-1v-3c0-.552-.447-1-1-1z" fill="#47af6c" data-original="#000000" class=""></path><path d="m47.9 50.005c-.55.055-.95.545-.896 1.095l1 10c.052.516.486.9.994.9.033 0 .066-.001.101-.005.55-.055.95-.545.896-1.095l-1-10c-.055-.548-.533-.95-1.095-.895z" fill="#47af6c" data-original="#000000" class=""></path><path d="m60.664 51.504c-.667-.444-1.47-.603-2.252-.445-.786.157-1.464.611-1.908 1.277-.71 1.064-.741 3.857-.723 5.009.006.329.172.633.445.815.167.111.36.168.555.168.125 0 .25-.023.369-.071 1.07-.425 3.636-1.53 4.346-2.594.917-1.375.544-3.242-.832-4.159zm-.831 3.05c-.177.25-1.006.744-2.023 1.232.059-1.127.196-2.083.358-2.341.148-.222.374-.374.636-.426.066-.013.133-.019.198-.019.195 0 .387.057.553.168.458.306.583.927.278 1.386z" fill="#47af6c" data-original="#000000" class=""></path><path d="m29.336 51.504c-1.376.917-1.749 2.784-.832 4.16.709 1.064 3.275 2.168 4.346 2.594.119.047.244.071.369.071.194 0 .388-.057.555-.168.273-.182.439-.487.445-.815.019-1.152-.013-3.945-.723-5.009-.916-1.376-2.784-1.749-4.16-.833zm.832 3.05c-.306-.458-.181-1.081.277-1.386.46-.306 1.082-.181 1.387.276.163.259.3 1.215.359 2.342-1.017-.487-1.846-.981-2.023-1.232z" fill="#47af6c" data-original="#000000" class=""></path><circle cx="55" cy="49" r="1" fill="#47af6c" data-original="#000000" class=""></circle><circle cx="35" cy="49" r="1" fill="#47af6c" data-original="#000000" class=""></circle><circle cx="58" cy="45" r="1" fill="#47af6c" data-original="#000000" class=""></circle><circle cx="31" cy="47" r="1" fill="#47af6c" data-original="#000000" class=""></circle></g></g></svg>