<?xml version="1.0" encoding="iso-8859-1"?>
<!-- Generator: Adobe Illustrator 19.0.0, SVG Export Plug-In . SVG Version: 6.00 Build 0)  -->
<svg version="1.1" id="Capa_1" xmlns="http://www.w3.org/2000/svg" xmlns:xlink="http://www.w3.org/1999/xlink" x="0px" y="0px"
	 viewBox="0 0 512 512" style="enable-background:new 0 0 512 512;" xml:space="preserve">
<path style="fill:#FFCE1C;" d="M432.805,330.575v52.455c0,14.163-7.039,27.434-18.842,35.27
	c-26.689,17.729-80.98,45.678-157.963,45.678S124.726,436.031,98.037,418.3c-11.803-7.837-18.842-21.108-18.842-35.27v-52.455
	H432.805z"/>
<path style="fill:#465759;" d="M432.805,224.207v106.368c0,14.163-7.039,27.434-18.842,35.27
	c-26.689,17.729-80.98,45.678-157.963,45.678s-131.274-27.948-157.963-45.678c-11.803-7.837-18.842-21.108-18.842-35.27V224.207
	H432.805z"/>
<polygon style="fill:#313D40;" points="364.737,178.815 256,282.115 227.431,303.781 256,345.061 512,223.743 512,160.797 "/>
<polygon style="fill:#3A484A;" points="147.263,178.815 0,160.797 0,223.743 256,345.061 256,282.115 "/>
<path style="fill:#465759;" d="M290.306,55.738c-21.713-10.289-46.899-10.289-68.612,0L0,160.797l256,121.316l256-121.316
	L290.306,55.738z"/>
<g>
	<path style="fill:#ECB000;" d="M482.642,301.503c-4.267,0-7.726-3.459-7.726-7.726v-53.771c0-29.535-22.172-53.93-51.574-56.743
		l-154.44-14.773c-4.247-0.407-7.362-4.179-6.955-8.427c0.407-4.247,4.17-7.364,8.427-6.955l154.44,14.773
		c37.372,3.576,65.555,34.582,65.555,72.125v53.771C490.368,298.044,486.909,301.503,482.642,301.503z"/>
	<path style="fill:#ECB000;" d="M508.966,350.295c-1.319-35.848-8.903-51.432-8.903-51.432h-34.841c0,0-7.584,15.584-8.903,51.432
		c-0.266,7.233,3.658,13.987,10.121,17.246c4.772,2.408,10.612,4.568,16.204,4.568c5.592,0,11.432-2.16,16.204-4.568
		C505.308,364.282,509.232,357.528,508.966,350.295z"/>
</g>
<g>
	<circle style="fill:#FFCE1C;" cx="482.64" cy="293.777" r="18.148"/>
	<ellipse style="fill:#FFCE1C;" cx="256" cy="160.801" rx="28.103" ry="20.376"/>
</g>
<g>
</g>
<g>
</g>
<g>
</g>
<g>
</g>
<g>
</g>
<g>
</g>
<g>
</g>
<g>
</g>
<g>
</g>
<g>
</g>
<g>
</g>
<g>
</g>
<g>
</g>
<g>
</g>
<g>
</g>
</svg>
