<svg id="Capa_1" enable-background="new 0 0 496.379 496.379" height="512" viewBox="0 0 496.379 496.379" width="512" xmlns="http://www.w3.org/2000/svg"><g><path d="m240.451 412.977h-7.012" style="fill:none;stroke:#000;stroke-width:15;stroke-linecap:round;stroke-linejoin:round;stroke-miterlimit:10"/><g><g id="XMLID_395_"><g><path d="m364.337 399.34 81.16-47.23c3.52-2.05 7.4-3.04 11.24-3.04 6.53 0 12.95 2.85 17.32 8.21 8.04 9.82 6.3 24.34-3.81 32l-120.96 91.5c-12.58 9.51-27.92 14.66-43.69 14.66h-24.05c-9.59 0-19.08-1.91-27.93-5.61l-88.92-37.18h-67.6l-55.54.17v-95.71h55.54 23.4c16.36-16.36 38.55-25.55 61.68-25.55h2c23.13 0 45.31 9.19 61.67 25.55l5.14 5.13h66.12c10.37 0 20.18 3.24 28.3 8.9 8.11 5.67 14.53 13.78 18.1 23.51.55 1.5.83 3.09.83 4.69z" fill="#ffe6c4"/></g><path d="m471.561 354.685c-.423.373-.857.739-1.314 1.085l-120.96 91.5c-12.58 9.51-27.92 14.66-43.69 14.66h-24.05c-9.59 0-19.08-1.91-27.93-5.61l-86.512-36.173c-1.589-.665-3.295-1.007-5.018-1.007h-64.99l-55.54.17v33.51l55.54-.17h67.6l88.92 37.18c8.85 3.7 18.34 5.61 27.93 5.61h24.05c15.77 0 31.11-5.15 43.69-14.66l120.96-91.5c10.11-7.66 11.85-22.18 3.81-32-.771-.945-1.608-1.808-2.496-2.595z" fill="#fed3a7"/><g><path d="m351.764 421.737c9.612 0 18.889-6.567 24.132-12.501 5.582-6.318 8.095-12.997 7.143-18.916l-.037-1.843-18.091 10.528c-.237.277-.484.557-.752.844-4.03 4.301-9.454 7.192-12.913 6.864-.233-.022-.466-.033-.7-.033h-83.6c-4.142 0-7.5 3.358-7.5 7.5s3.358 7.5 7.5 7.5h83.29c.51.039 1.018.057 1.528.057z" fill="#fed3a7"/></g></g></g><path d="m96.688 454.289v-34.69h.412v-67.695c0-8.75-7.094-15.844-15.844-15.844h-56.493v137.637h56.494c8.75 0 15.844-7.093 15.844-15.844v-3.977z" fill="#d4f2f6"/><path d="m81.257 431.842h-56.494v41.855h56.494c8.75 0 15.844-7.093 15.844-15.844v-41.855c-.001 8.751-7.094 15.844-15.844 15.844z" fill="#a7e6ef"/><g><path d="m24.763 496.379c-4.142 0-7.5-3.358-7.5-7.5v-167.898c0-4.142 3.358-7.5 7.5-7.5s7.5 3.358 7.5 7.5v167.898c0 4.142-3.358 7.5-7.5 7.5z" fill="#a7e6ef"/></g><path d="m396.342 29.598c-39.465-39.464-103.449-39.464-142.913 0l-2.554 2.553-2.554-2.553c-39.464-39.464-103.449-39.464-142.913 0-39.464 39.464-39.464 103.449 0 142.913l127.846 127.846c9.732 9.732 25.51 9.732 35.241 0l127.846-127.846c39.465-39.464 39.465-103.448.001-142.913z" fill="#fd828a"/><g><path d="m167.386 172.512c-39.464-39.464-39.464-103.449 0-142.913 11.747-11.748 25.668-19.997 40.467-24.75-34.918-11.216-74.729-2.967-102.446 24.75-39.464 39.464-39.464 103.449 0 142.913l127.846 127.846c9.732 9.732 25.51 9.732 35.241 0l13.368-13.368z" fill="#fd6773"/></g><circle cx="250.917" cy="149.752" fill="#f9f7f8" r="89.813"/><path d="m167.386 172.512c-1.558-1.558-3.048-3.159-4.483-4.791 7.119 35.055 34.655 62.693 69.655 69.963z" fill="#efedef"/><g fill="#fd828a"><path d="m295.285 135.571h-26.153v-26.153c0-2.123-1.721-3.844-3.844-3.844h-28.826c-2.123 0-3.844 1.721-3.844 3.844v26.153h-26.153c-2.123 0-3.844 1.721-3.844 3.844v28.826c0 2.123 1.721 3.844 3.844 3.844h26.153v26.153c0 2.123 1.721 3.844 3.844 3.844h28.826c2.123 0 3.844-1.721 3.844-3.844v-26.153h26.153c2.123 0 3.844-1.721 3.844-3.844v-28.826c-.001-2.123-1.722-3.844-3.844-3.844z"/><path d="m443.031 254.524h-16.678v-16.677c0-2.356-1.91-4.266-4.266-4.266h-21.957c-2.356 0-4.266 1.91-4.266 4.266v16.677h-16.678c-2.356 0-4.266 1.91-4.266 4.266v21.957c0 2.356 1.91 4.266 4.266 4.266h16.678v16.678c0 2.356 1.91 4.266 4.266 4.266h21.957c2.356 0 4.266-1.91 4.266-4.266v-16.678h16.678c2.356 0 4.266-1.91 4.266-4.266v-21.957c0-2.356-1.91-4.266-4.266-4.266z"/><path d="m59.803 254.524h16.677v-16.677c0-2.356 1.91-4.266 4.266-4.266h21.957c2.356 0 4.266 1.91 4.266 4.266v16.677h16.678c2.356 0 4.266 1.91 4.266 4.266v21.957c0 2.356-1.91 4.266-4.266 4.266h-16.678v16.678c0 2.356-1.91 4.266-4.266 4.266h-21.957c-2.356 0-4.266-1.91-4.266-4.266v-16.678h-16.677c-2.356 0-4.266-1.91-4.266-4.266v-21.957c0-2.356 1.91-4.266 4.266-4.266z"/></g></g></svg>