<svg id="Layer_1" enable-background="new 0 0 512.021 512.021" height="512" viewBox="0 0 512.021 512.021" width="512" xmlns="http://www.w3.org/2000/svg"><g id="XMLID_679_"><path id="XMLID_1258_" d="m354.87 301.384c-10.174 0-19.832 2.181-28.56 6.073-12.245-20.574-34.695-34.366-60.375-34.366-20.576 0-39.083 8.851-51.926 22.951-5.869-1.416-11.99-2.185-18.294-2.185-42.939 0-77.747 34.809-77.747 77.748s34.809 77.747 77.747 77.747c27.565 0 51.761-14.358 65.567-35.99 1.54.101 3.088.17 4.653.17 10.174 0 19.832-2.181 28.56-6.073 12.245 20.574 34.695 34.366 60.375 34.366 38.782 0 70.221-31.439 70.221-70.22 0-38.782-31.439-70.221-70.221-70.221z" fill="#d1a19e"/><path id="XMLID_1231_" d="m461.94 23.126-38.495-10.315c-43.401-11.629-88.012 14.127-99.642 57.528l-10.315 38.495 38.495 10.315c43.401 11.629 88.012-14.127 99.642-57.528z" fill="#89df8f"/><path id="XMLID_1230_" d="m69.94 23.126 38.495-10.315c43.401-11.629 88.012 14.127 99.642 57.528l10.315 38.495-38.495 10.315c-43.401 11.629-88.012-14.127-99.642-57.528z" fill="#89df8f"/><path id="XMLID_144_" d="m499.681 364.188c-6.238-14.665-23.139-21.55-37.849-15.418l-132.216 55.152-.014.003c-1.305-1.026-2.705-1.952-4.209-2.738l-98.007-51.266c-45.04-23.56-97.697-27.27-145.384-10.57v-.001h-72v144.208h72l107.109 16.545c28.24 4.481 57.17 1.061 83.588-9.88l211.427-87.904c14.877-6.183 21.861-23.306 15.555-38.131z" fill="#f3c9a6"/><g id="XMLID_141_"><g id="XMLID_142_"><g id="XMLID_150_"><path id="XMLID_156_" d="m508.883 360.274c-8.356-19.648-31.191-28.95-50.9-20.733l-25.766 10.748c-9.403-34.29-40.788-58.905-77.347-58.905-8.472 0-16.749 1.306-24.704 3.892-13.041-17.369-32.743-28.803-54.227-31.542v-77.949c0-27.748 14.763-52.805 38.764-66.272l34.692 9.296c7.87 2.109 15.857 3.152 23.793 3.152 15.83 0 31.454-4.152 45.53-12.279 21.133-12.201 36.25-31.902 42.565-55.473l10.314-38.495c1.43-5.334-1.736-10.818-7.071-12.247l-38.493-10.314c-48.663-13.039-98.851 15.941-111.889 64.599l-9.191 34.302c-17.165 9.617-30.589 23.923-39.013 40.888-8.424-16.965-21.848-31.271-39.012-40.888l-9.192-34.302c-6.315-23.571-21.433-43.271-42.565-55.473-21.132-12.2-45.751-15.443-69.323-9.126l-38.496 10.314c-2.563.687-4.746 2.362-6.072 4.659s-1.686 5.026-.999 7.588l10.315 38.495c6.315 23.571 21.433 43.272 42.565 55.473 14.077 8.127 29.698 12.279 45.53 12.279 7.934 0 15.924-1.043 23.793-3.152l34.692-9.296c24 13.467 38.763 38.524 38.763 66.272v77.958c-16.917 2.137-32.828 9.623-45.249 21.407-4.957-.859-9.974-1.292-14.977-1.292-28.215 0-54.397 13.408-70.914 36.074-15.051 1.371-29.99 4.494-44.477 9.42h-70.32c-5.522 0-10 4.477-10 10v144.208c0 5.523 4.478 10 10 10h71.232l106.31 16.422c8.591 1.363 17.237 2.04 25.864 2.04 21.575 0 43.021-4.235 63.129-12.562l102.368-42.561c5.1-2.121 7.515-7.973 5.395-13.073-2.119-5.1-7.976-7.515-13.072-5.395l-32.062 13.33c6.905-6.873 10.81-16.104 10.884-26.088.046-6.291-1.477-12.321-4.278-17.654l119.908-50.019c9.602-4.001 20.728.528 24.799 10.103 1.998 4.697 2.037 9.887.109 14.614s-5.586 8.41-10.3 10.37l-25.939 10.785c-5.1 2.121-7.515 7.973-5.395 13.073 1.598 3.845 5.318 6.164 9.237 6.164 1.279 0 2.58-.247 3.835-.769l25.939-10.785c9.676-4.023 17.184-11.582 21.141-21.285 3.958-9.702 3.879-20.355-.223-29.996zm-175.421-287.346c10.185-38.006 49.39-60.641 87.395-50.457l28.836 7.727-7.727 28.836c-4.933 18.411-16.74 33.798-33.247 43.328-16.506 9.531-35.733 12.062-54.147 7.129l-15.176-4.066 22.219-12.828c4.783-2.761 6.422-8.877 3.66-13.66-2.762-4.782-8.873-6.422-13.66-3.66l-22.219 12.828zm-163.196 19.668 22.219 12.828-15.176 4.066c-18.413 4.934-37.642 2.401-54.147-7.129-16.507-9.53-28.314-24.917-33.247-43.329l-7.727-28.835 28.835-7.727c18.414-4.934 37.643-2.401 54.147 7.128 16.507 9.53 28.314 24.918 33.247 43.329l4.066 15.175-22.218-12.827c-4.785-2.761-10.9-1.123-13.66 3.66-2.761 4.784-1.122 10.9 3.661 13.661zm152.602 346.845c-4.522 3.265-10.16 4.154-15.468 2.437l-101.065-32.691c-.995-.322-2.033-.485-3.078-.485h-22.921c-5.522 0-10 4.477-10 10s4.478 10 10 10h21.344l99.564 32.206c3.788 1.225 7.652 1.834 11.483 1.846l-43.854 18.233c-24.724 10.239-51.764 13.435-78.235 9.236l-107.872-16.547c-.505-.078.511-.117 0-.117h-62.763v-124.208h64.416c45.019-15.728 96.067-12.678 138.334 9.432l98.006 51.266c5.779 3.023 9.34 8.954 9.292 15.475-.041 5.579-2.659 10.652-7.183 13.917zm7.461-46.945c.05.027.099.054-.002.001l-98.305-51.436c-24.788-12.967-51.974-20.242-79.483-21.678 11.983-9.923 27.155-15.526 43.174-15.526 5.339 0 10.705.642 15.948 1.907 3.552.856 7.282-.289 9.738-2.987 11.396-12.51 27.627-19.685 44.534-19.685 21.117 0 40.959 11.296 51.782 29.48 2.593 4.357 8.035 6.084 12.666 4.019 7.746-3.455 15.985-5.206 24.487-5.206 28.322 0 52.504 19.67 58.685 46.69z"/><path id="XMLID_161_" d="m84.419 349.351c-1.17.399 1.18.037 0 0z"/><path id="XMLID_162_" d="m330.327 392.497.002-.001c-.051-.027-.103-.054-.002.001z"/></g><path id="XMLID_157_" d="m84.419 349.351c-.067.025.07-.023 0 0z"/></g><path id="XMLID_164_" d="m416.623 420.389c-2.63 0-5.2 1.06-7.07 2.92-1.86 1.87-2.93 4.44-2.93 7.07 0 2.64 1.069 5.21 2.93 7.08 1.86 1.86 4.44 2.93 7.07 2.93 2.64 0 5.21-1.07 7.069-2.93 1.87-1.86 2.931-4.44 2.931-7.08 0-2.63-1.061-5.2-2.931-7.07-1.859-1.86-4.439-2.92-7.069-2.92z"/></g></g></svg>